/* XPM */
static char *empty_resized[] = {
/* columns rows colors chars-per-pixel */
"32 32 48 1 ",
"  c #DED797",
". c #DED798",
"X c #E0D99A",
"o c #E1DA9A",
"O c #E1DA9B",
"+ c #E2DB9B",
"@ c #E2DB9C",
"# c #E6DFA0",
"$ c #E4DDA2",
"% c #E4DDA3",
"& c #E5DEA3",
"* c #F4EDB1",
"= c #F4EDB2",
"- c #F5EEB2",
"; c #F7F0B5",
": c #F7F0B6",
"> c #F8F0B6",
", c #F8F1B6",
"< c #F8F1B7",
"1 c #F9F2B7",
"2 c #F9F2B8",
"3 c #F8F1BB",
"4 c #FBF4B9",
"5 c #FBF4BA",
"6 c #FBF4BB",
"7 c #FCF5BB",
"8 c #FBF4BE",
"9 c #FBF5BE",
"0 c #FBF5BF",
"q c #FCF5BF",
"w c #FBF5C0",
"e c #FCF5C0",
"r c #FCF5C1",
"t c #FCF6C3",
"y c #FAF7DA",
"u c #FBF7DA",
"i c #FBF8E0",
"p c #FBF8E1",
"a c #FEFBE0",
"s c #FEFBE1",
"d c #FEFBE3",
"f c #FEFBE4",
"g c #FEFCE4",
"h c #FEFCE5",
"j c #FFFCE5",
"k c #FFFCE6",
"l c #FFFCE7",
"z c #FFFDEB",
/* pixels */
" o;5555555555551oo;5555555555555",
" o;5111111155551oo;5111111155555",
" o;1#oooooo#ule;oo;1#oooooo#ul55",
" o;1o ooooo#lle;oo;1o ooooo#lle5",
" o;1oo*;;;;5lle;oo;1oo*;;;;5lle5",
" o;1oo155555lle;oo;1oo;5555elle5",
" o;1oo;55555lle;oo;1oo;55555lle5",
" o;1oo;55555lle;oo;1oo;55555lle5",
" o;1oo;55555lle;oo;1oo;55555lle5",
" o;5##55555elle;oo;5##55555elle5",
" o;5ulllllllzle;oo;5ulllllllzle5",
" o;5lllllllllle;oo;5lllllllllle5",
" o;5eeeeeeeeee51oo;5eeeeeeeeee55",
" o*111111111111*oo*1111111111111",
"  oooooooooooooo. oooooooooooooo",
"  oooooooooooooo. oooooooooooooo",
" o*11111111;;;1*oo*11111111;;;;;",
" o;511111115555;oo;5111111155555",
" o;1#oooooo#ule;oo;1#oooooo#ul55",
" o;1o ooooo#lle;oo;1o ooooo#lle5",
" o;1oo*;;;;5lle;oo;1oo*;;;;5lle5",
" o;1oo15555elle;oo;1oo155555lle5",
" o;1oo;55555lle;oo;1oo;55555lle5",
" o;1oo;55555lle;oo;1oo;55555lle5",
" o;1oo;55555lle;oo;1oo;55555lle5",
" o;5##55555elle;oo;5##55555elle5",
" o;5ulllllllzle;oo;5ulllllllzle5",
" o;5lllllllllle;oo;5lllllllllle5",
" o;5eeeeeeeeee51oo;5eeeeeeeeee55",
" o*111111111111*oo*1111111111111",
" .oooooooooooooo..oooooooooooooo",
"                                "
};
