/* XPM */
static char *exit_resized[] = {
/* columns rows colors chars-per-pixel */
"32 32 179 2 ",
"   c None",
".  c black",
"X  c #020202",
"o  c #030303",
"O  c #070000",
"+  c #060606",
"@  c #080000",
"#  c #090000",
"$  c #0B0001",
"%  c #0E0000",
"&  c #0F0000",
"*  c #090A0A",
"=  c #0A0B0B",
"-  c #0C0D0D",
";  c #110102",
":  c #170001",
">  c #180101",
",  c #0F1010",
"<  c #101111",
"1  c #111111",
"2  c #111212",
"3  c #121212",
"4  c #131414",
"5  c #1B1B1B",
"6  c #1D1D1D",
"7  c #3B0406",
"8  c #271D1E",
"9  c #2B1E1E",
"0  c #282828",
"q  c #292929",
"w  c #2A2A2A",
"e  c #2B2B2B",
"r  c #2C2C2C",
"t  c #2D2E2E",
"y  c #2E2E2E",
"u  c #322A2A",
"i  c #3D292A",
"p  c #303030",
"a  c #313131",
"s  c #333333",
"d  c #353535",
"f  c #363636",
"g  c #363737",
"h  c #373737",
"j  c #383636",
"k  c #3A3636",
"l  c #3C3434",
"z  c #383939",
"x  c #3C3C3C",
"c  c #470608",
"v  c #480609",
"b  c #760E12",
"n  c #7B0F13",
"m  c #7C0F13",
"M  c #7E0F13",
"N  c #7B1014",
"B  c #463333",
"V  c #403334",
"C  c #414141",
"Z  c #454545",
"A  c #464646",
"S  c #4B4444",
"D  c #4B4B4B",
"F  c #525252",
"G  c #575050",
"H  c #545454",
"J  c #555555",
"K  c #555656",
"L  c #5F5F5F",
"P  c #724B4C",
"I  c #704F50",
"U  c #775455",
"Y  c #616262",
"T  c #646666",
"R  c #666666",
"E  c #676767",
"W  c #6B6B6B",
"Q  c #6F6F6F",
"!  c #737373",
"~  c #737575",
"^  c #747474",
"/  c #757575",
"(  c #767676",
")  c #797979",
"_  c #7B7B7B",
"`  c #871116",
"'  c #871317",
"]  c #881115",
"[  c #881216",
"{  c #941216",
"}  c #991217",
"|  c #A61319",
" . c #A51A1F",
".. c #AC1A1F",
"X. c #B6151B",
"o. c #B4161B",
"O. c #B5161B",
"+. c #B6161B",
"@. c #BE171D",
"#. c #BF171D",
"$. c #911F23",
"%. c #991D21",
"&. c #9E1C20",
"*. c #8B2124",
"=. c #C0171D",
"-. c #C2181E",
";. c #C8181E",
":. c #CB191F",
">. c #D81A21",
",. c #DA1B21",
"<. c #E11C22",
"1. c #E31C23",
"2. c #E41C23",
"3. c #E51C23",
"4. c #E61C23",
"5. c #E71C23",
"6. c #E81C23",
"7. c #E81C24",
"8. c #E91C24",
"9. c #E91D24",
"0. c #EA1D24",
"q. c #EB1D24",
"w. c #EC1D24",
"e. c #818181",
"r. c #868686",
"t. c #888888",
"y. c #8D8D8D",
"u. c #989898",
"i. c #A2A2A2",
"p. c #A5A5A5",
"a. c #A7A7A7",
"s. c #AAABAB",
"d. c #ABABAB",
"f. c #ADADAD",
"g. c #B8B8B8",
"h. c #B9B9B9",
"j. c #BABABA",
"k. c #BDBDBD",
"l. c #C2C2C2",
"z. c #C4C4C4",
"x. c #C7C7C7",
"c. c #C8C8C8",
"v. c #CFCFCF",
"b. c #D1CFCF",
"n. c #D2D2D2",
"m. c #D3D3D3",
"M. c #D4D4D4",
"N. c #D5D5D5",
"B. c #D6D5D5",
"V. c #D8D8D8",
"C. c #DBDBDB",
"Z. c #DDDDDD",
"A. c #DFDFDF",
"S. c #E0DFDF",
"D. c #E0E0E0",
"F. c #E2E2E2",
"G. c #E3E3E3",
"H. c #E6E5E5",
"J. c #E6E6E6",
"K. c #EBEBEB",
"L. c #ECECEC",
"P. c #EDEDED",
"I. c #EEEEEE",
"U. c #EFEFEF",
"Y. c #F1F1F1",
"T. c #F2F2F2",
"R. c #F3F3F3",
"E. c #F4F4F4",
"W. c #F5F5F5",
"Q. c #F6F6F6",
"!. c #F7F7F7",
"~. c #F8F8F8",
"^. c #F9F9F9",
"/. c #FAFAFA",
"(. c #FBFBFB",
"). c #FCFCFC",
"_. c #FDFDFD",
"`. c #FEFEFE",
"'. c #FFFFFF",
/* pixels */
"              . . . . . . . . . . . . . . . . . .               ",
"              . . . . . . . . . . . . . . . . . .               ",
"          . 0 i.d.d.d.d.d.d.d.d.d.d.d.d.d.d.d.d.i.g .           ",
"          . 0 U.'.'.'.'.'.'.'.'.'.'.'.'.'.'.'.'.R.g .           ",
"        C R e.R.'.'.'.'.'.'.'.'.'.'.'.'.'.'.'.'.R.t.R C         ",
"    . . R '.'.'.'.'.'.'.'.'.'.'.'.'.'.'.'.'.'.'.'.'.'./ . .     ",
"    0 0 e.'.'.'.'.A.n.n.n.A.'.'.'.'.H.n.n.n.A.'.'.'.'.t.0 0     ",
". . i.U.R.'.'.'.R.C 4 4 , K '.'.'.'.R * 4 4 x U.'.'.'.R.U.d.. . ",
". . d.'.'.'.'.R.H.l @ @ . S U.R.R.U.K . @ @ u S.R.'.'.'.'.k.. . ",
". . d.'.'.'.A.C l %.o.o.o.$.l g g l *.o.o.o.%.B C n.'.'.'.k.. . ",
". . d.'.'.'.n.4 @ o.q.q.q.| . . . . } q.q.q.=.@ * l.'.'.'.k.. . ",
". . d.'.'.'.n.4 @ o.q.3.3.;.n n n n -.3.3.3.#.: * c.'.'.'.k.. . ",
". . d.'.'.'.n.4 @ o.q.3.3.3.q.q.q.q.3.3.3.q.#.: * c.'.'.'.k.. . ",
". . d.'.'.'.n.4 @ o.q.3.3.3.3.3.3.3.3.3.3.q.#.: * c.'.'.'.k.. . ",
". . d.'.'.'.n.4 @ o.q.3.3.3.3.3.3.3.3.3.3.q.#.@ * c.'.'.'.k.. . ",
". . d.'.'.'.A.g 8  .;.>.3.3.3.3.3.3.3.3.>.;...9 0 c.'.'.'.k.. . ",
". . d.'.'.'.'.H.n.B : ] q.3.3.3.3.3.3.q.{ > i b.H.'.'.'.'.k.. . ",
". . d.'.'.'.'.'.R.x . N 3.3.3.3.3.3.3.3.' . 0 U.'.'.'.'.'.k.. . ",
". . d.'.'.'.'.'.'.k.d.U c b 3.3.3.3.n c P d.k.'.'.'.'.'.'.g.. . ",
". . d.'.'.'.'.'.'.'.'./ . 7 3.q.q.3.c . R '.'.'.'.'.'.'.'.k.. . ",
". . / u.l.'.'.'.'.'.'.d.R I ' ] ] ] P R i.'.'.'.'.'.'.l.u.) . . ",
"    . . R '.'.'.'.'.'.'.'.g.. . . . d.'.'.'.'.'.'.'.'./ . .     ",
"    . . L n.A.'.'.'.'.'.'.l.g 0 0 0 k.'.'.'.'.'.'.A.n.Q . .     ",
"          4 x U.'.'.'.'.'.'.U.U.U.U.'.'.'.'.'.'.R.C 4 4         ",
"          . 0 H.R.R.R.R.R.R.'.'.'.'.R.R.R.R.R.R.H.g .           ",
"              g g g g g g Q '.'.'.'.) g g g g g g               ",
"              . . . . . . C '.'.'.'.K . . . . . .               ",
"                          g / e.U.'.K . .                       ",
"                            . 6 H.'.K . .                       ",
"                            . 6 i.g.D .                         ",
"                                . .                             ",
"                                . .                             "
};
