/* XPM */
static char *items_resized[] = {
/* columns rows colors chars-per-pixel */
"32 30 139 2 ",
"   c None",
".  c #010000",
"X  c #0D0101",
"o  c #070909",
"O  c #0C0C0C",
"+  c #130101",
"@  c #1D0201",
"#  c #130C0C",
"$  c #131414",
"%  c #171818",
"&  c #1B1B1B",
"*  c #240402",
"=  c #2D0503",
"-  c #350503",
";  c #3A0603",
":  c #350708",
">  c #3B0709",
",  c #240F10",
"<  c #281314",
"1  c #1F2121",
"2  c #232323",
"3  c #2A2A2A",
"4  c #3E2021",
"5  c #333333",
"6  c #3B3B3B",
"7  c #480704",
"8  c #4B090B",
"9  c #530805",
"0  c #5E0904",
"q  c #510609",
"w  c #5A070A",
"e  c #550A0D",
"r  c #5D0B0E",
"t  c #5A100C",
"y  c #680B06",
"u  c #6D0C09",
"i  c #7D0C07",
"p  c #730B0B",
"a  c #7A0D09",
"s  c #690D10",
"d  c #780E11",
"f  c #621612",
"g  c #751C19",
"h  c #691D20",
"j  c #73292C",
"k  c #444444",
"l  c #4A4A4A",
"z  c #514142",
"x  c #535353",
"c  c #5E5E5E",
"v  c #6B5D5C",
"b  c #636363",
"n  c #6E6E6E",
"m  c #757575",
"M  c #7B7B7B",
"N  c #810D07",
"B  c #8B0E08",
"V  c #960F09",
"C  c #8C1012",
"Z  c #821812",
"A  c #8D1A14",
"S  c #951217",
"D  c #961A1E",
"F  c #991B1F",
"G  c #B10F06",
"H  c #A51009",
"J  c #AA1109",
"K  c #B3120A",
"L  c #BC140F",
"P  c #A41419",
"I  c #BF1511",
"U  c #BA1F17",
"Y  c #B4161C",
"T  c #BA181E",
"R  c #B6211A",
"E  c #C51614",
"W  c #C91616",
"Q  c #CA161A",
"!  c #CA1819",
"~  c #DC1A1E",
"^  c #E4181F",
"/  c #D51920",
"(  c #DC1B22",
")  c #E51C23",
"_  c #EA1C23",
"`  c #CC2625",
"'  c #CB242A",
"]  c #E7282F",
"[  c #EA282F",
"{  c #E72D33",
"}  c #E82D33",
"|  c #8E4E4A",
" . c #837778",
".. c #A37577",
"X. c #A37B7C",
"o. c #B47D7F",
"O. c #C76D68",
"+. c #D86E71",
"@. c #D97474",
"#. c #E4787B",
"$. c #F07F83",
"%. c #828282",
"&. c #8D8D8D",
"*. c #9B8786",
"=. c #949494",
"-. c #9A9A9A",
";. c #A28687",
":. c #A4A5A5",
">. c #A7A9A9",
",. c #ADADAD",
"<. c #B4B3B3",
"1. c #BCBCBC",
"2. c #E18386",
"3. c #EE8185",
"4. c #F28589",
"5. c #C0BCBC",
"6. c #DABEBC",
"7. c #C5C6C6",
"8. c #CBCBCB",
"9. c #DFC6C4",
"0. c #DBCAC9",
"q. c #D4D4D4",
"w. c #DCDCDC",
"e. c #ECCAC9",
"r. c #F3CECF",
"t. c #FACED0",
"y. c #E2D3D4",
"u. c #FED2D3",
"i. c #FAD6D8",
"p. c #E3E4E4",
"a. c #E5E8E8",
"s. c #EBEBEB",
"d. c #EFF3F3",
"f. c #F5F5F5",
"g. c #F9FDFD",
"h. c #FDFDFD",
"j. c #FEFEFE",
"k. c #FFFFFF",
"l. c #FAFAFA",
/* pixels */
"          . . . . . .                     . . . . . .           ",
"          . . . . . .                     . . . . . .           ",
"      . 8 S S S D ;.>.c .             . 8 S S S S S S e .       ",
"    . . r _ _ _ [ u.k.m . .         . . r _ _ _ _ _ _ s . .     ",
"    . . > S P ( ] t.k.X.q 8         . . r ) ) ) ) ) ) C ; ;     ",
". . . . . . * ~ [ t.k.4._ P . . . . . . r ) ) ) ) ) ) ! K i . . ",
". . % 2 2 1 4 T ' r.k.2.Q F 2 2 2 2 O . r ) ) ) ) ) ) ! K i . . ",
". . -.a.a.a.5.< , 8.k. .+ z w.a.a.a.l . r ) ) ) ) ) ) ! K i . . ",
". . ,.k.k.k.q.% % 7.k.m . l k.k.k.k.x . r ) ) ) ) ) ) ! K i . . ",
". . ,.k.k.k.f.1.<.b k %.<.8.k.k.k.k.x . r ) ) ) ) ) ) ! K i . . ",
". . ,.k.k.k.k.k.k.5 . &.k.k.k.k.k.k.x . r ^ ^ ^ ^ ^ ) ! G i . . ",
". . b =.1.k.s.-.&.m n %.&.,.k.f.-.&.M n ..$.$.$.$.$.$.@.O.| . . ",
". . . . b k.q.O . 8.k.m . k k.a.& . ,.k.k.k.k.k.k.k.k.d.a.:.. . ",
". . & 2 %.k.w.6 3 ,.q.m 2 b k.a.k 3 -.q.y.i.i.i.u.u.i.e.6.*.. . ",
". . &.q.a.k.f.q.7.6 O m q.w.k.k.q.8.x O h } { { { { } ` R Z . . ",
". . =.a.s.k.f.w.8.5 . M w.a.k.k.a.w.l . r ) ) ) ) ) ) E J i . . ",
". . =.a.a.s.8.6 6 :.8.m 3 b a.a.a.w.l . r ) ) ) ) E L u * *     ",
". . -.a.a.a.1.O o 8.k.m . 6 w.a.a.a.l . r ) ) ) ) L K 9 . .     ",
". . l m n n v t f 0.k.o.p j n n n n 2 . r ) ) ! E p 9 -         ",
". . . . . . @ H U e.k.4._ P . . . . . . r ) ~ K J * .           ",
". . . . . . @ i A 9.k.3.) Y > : : : : : d ~ ! B N * .           ",
"              . # <.a.#.) ) ( ( ( ( ( ( Q K V + .               ",
"              . O :.q.+.^ ) ) ) ) ) ) ) ! H B X .               ",
"                  2 2 g L E ) ) ) ) ! L a @ @                   ",
"                  . . 0 K I ) ) ) ) E K y . .                   ",
"                      - 7 u E E E E p 7 ;                       ",
"                      . . = J K K K ; . .                       ",
"                        . = i i i i - .                         ",
"                            . . . .                             ",
"                            . . . .                             "
};
