/* XPM */
static char *player_resized[] = {
/* columns rows colors chars-per-pixel */
"25 32 158 2 ",
"   c None",
".  c #010100",
"X  c #0D0B03",
"o  c #0C0B0B",
"O  c #1E1904",
"+  c #151311",
"@  c #1B1913",
"#  c #231E06",
"$  c #241F08",
"%  c #281E1D",
"&  c #271E1C",
"*  c #292307",
"=  c #252008",
"-  c #2C2509",
";  c #2D280C",
":  c #322A09",
">  c #3E350C",
",  c #29261C",
"<  c #27241B",
"1  c #312E11",
"2  c #363214",
"3  c #3E381B",
"4  c #3C3814",
"5  c #2B2322",
"6  c #2E2B21",
"7  c #312E23",
"8  c #302928",
"9  c #363225",
"0  c #3F3D26",
"q  c #3F3B2D",
"w  c #38352B",
"e  c #3C3332",
"r  c #3F3E35",
"t  c #473C0E",
"y  c #403735",
"u  c #4B3937",
"i  c #453B3A",
"p  c #493E3D",
"a  c #514C1D",
"s  c #57511E",
"d  c #4C452D",
"f  c #5C5620",
"g  c #4A403E",
"h  c #544D33",
"j  c #57513E",
"k  c #59533F",
"l  c #726B27",
"z  c #746D28",
"x  c #7C6B23",
"c  c #6A603D",
"v  c #534745",
"b  c #5D5642",
"n  c #5E5843",
"m  c #5D504E",
"M  c #625C46",
"N  c #6B5B59",
"B  c #6E5450",
"V  c #765A56",
"C  c #676049",
"Z  c #68614A",
"A  c #716743",
"S  c #6E6254",
"D  c #726656",
"F  c #766B59",
"G  c #766E53",
"H  c #7E755A",
"J  c #867425",
"K  c #907B21",
"L  c #81785B",
"P  c #916F6A",
"I  c #877E60",
"U  c #8F7B69",
"Y  c #89746B",
"T  c #877370",
"R  c #947F7B",
"E  c #977873",
"W  c #998221",
"Q  c #988627",
"!  c #A08821",
"~  c #A48D28",
"^  c #AB9328",
"/  c #B49A26",
"(  c #A29738",
")  c #AB9C3C",
"_  c #BDA128",
"`  c #C2A528",
"'  c #C9AC2A",
"]  c #CFB12B",
"[  c #D1B22C",
"{  c #DDBC2E",
"}  c #EAC72F",
"|  c #ECC92F",
" . c #F2CE2E",
".. c #E5C430",
"X. c #E8C631",
"o. c #EBC931",
"O. c #F1CE32",
"+. c #F6D233",
"@. c #FAD534",
"#. c #FFDB36",
"$. c #FEDC3F",
"%. c #FFE13E",
"&. c #B7A341",
"*. c #948969",
"=. c #9C916F",
"-. c #978270",
";. c #A7927C",
":. c #B2A57E",
">. c #FEDB40",
",. c #F4E454",
"<. c #FCEB57",
"1. c #FFE25B",
"2. c #FFEE58",
"3. c #FFF059",
"4. c #F2DA66",
"5. c #FFEA7D",
"6. c #9A8580",
"7. c #A58D8A",
"8. c #A18A86",
"9. c #AF9A82",
"0. c #AC938F",
"q. c #BF928B",
"w. c #BE9E99",
"e. c #B09693",
"r. c #B7AA82",
"t. c #C0938C",
"y. c #C1B389",
"u. c #C8BA8E",
"i. c #C2A09B",
"p. c #CBBD90",
"a. c #F3BAB1",
"s. c #FBBFB6",
"d. c #D2C395",
"f. c #E8D69A",
"g. c #E7D59A",
"h. c #FFF48A",
"j. c #F4EA95",
"k. c #FFEA9F",
"l. c #FBF19D",
"z. c #E7D7A4",
"x. c #E5C1BB",
"c. c #ECC3BD",
"v. c #F4E3AD",
"b. c #FFF6AA",
"n. c #FBF2A2",
"m. c #FEECB5",
"M. c #FFF8B4",
"N. c #FFF1B8",
"B. c #E6C5C0",
"V. c #FECCC4",
"C. c #FED3CC",
"Z. c #FAD6D0",
"A. c #FFDAD4",
"S. c #FFEBC1",
"D. c #F1EECB",
"F. c #F6F2CF",
"G. c #FFF9CB",
"H. c #FFFAD1",
/* pixels */
"        . . . . . .           . . . . . .         ",
"        . o 5 5 5 %           % 5 5 5 o .         ",
"        . e x.c.a.E . . . . . P a.c.B.i .         ",
"        . e C.c.q.V . . . . . B q.a.A.p .         ",
"        . y A.e.. . . . . . . . . 7.A.p .         ",
"        . 5 7.U s s s s s s s s s I 7.8 .         ",
"        . . . a <.<.<.<.<.<.<.<.<.f . . .         ",
"      ; l z z ( 2.2.2.2.2.2.2.2.2.) l z z 1       ",
"    . 2 ,.3.3.3.2.2.2.2.2.2.2.2.2.3.3.3.<.4 .     ",
"    . 9 j.h.2.2.2.2.2.2.2.2.2.2.2.2.2.h.j.0 .     ",
"    . w D.M.2.2.2.2.2.2.2.2.2.2.2.2.2.M.F.r .     ",
"    . 2 4.5.n.b.b.h.2.2.2.2.2.h.b.b.b.5.4.3 .     ",
"    . >  .1.G.H.H.n.,.<.<.<.,.l.H.H.G.1. .t .     ",
". $ / ] @.$.1.1.1.&.2 Q %.Q 2 ) 1.1.1.>.@.[ / * . ",
". = X.#.#.@.| } | W o x $.J o K | } | @.#.#.o.* . ",
". = ..#.#.' : * * c d.g.k.f.d.A * * ; ` #.#.o.* . ",
". = ..+.{ ^ , + . b m.m.m.m.N.Z . + < ~ { +.o.* . ",
". = o.[ $ d z.=.. b m.m.m.m.m.C . *.z.h O ' O.* . ",
". $ _ ! . 7 u.=.7 H m.m.m.m.m.I 7 *.p.w . W ` * . ",
"    X X . . . j v.m.N.N.N.N.N.m.v.M . . . X X     ",
"    . . . + p S :.:.:.:.:.:.:.:.:.D p + . . .     ",
"        . e Z.0.. . . . . . . . . 8.A.i .         ",
"      , Z F R T N N N N N N N N N T R F Z 6       ",
"    . 9 v.y.. v A.A.A.A.A.A.A.A.A.m . r.m.q .     ",
"    . 9 v.y.. v A.A.A.A.A.A.A.A.A.m . r.m.q .     ",
"    . 9 v.y.. v A.A.A.A.A.A.A.A.A.m . r.m.q .     ",
"      , n D 6.w.V.C.A.C.V.C.A.C.V.i.6.D n 6       ",
"        . e Z.C.s.V.A.V.s.V.A.V.s.C.A.i .         ",
"              E u U S.9.u ;.S.-.u Y               ",
"                . k v.L . G v.M .                 ",
"                    9 @ . @ 9 ,                   ",
"                    . . . . .                     "
};
