/* XPM */
static char *wall_resized[] = {
/* columns rows colors chars-per-pixel */
"32 32 46 1 ",
"  c #5C3F36",
". c #5D4037",
"X c #604238",
"o c #604239",
"O c #614339",
"+ c #64473E",
"@ c #64483F",
"# c #65483F",
"$ c #654840",
"% c #654940",
"& c #684B41",
"* c #684B42",
"= c #6A4D43",
"- c #6C5047",
"; c #6D5148",
": c #735145",
"> c #765246",
", c #765346",
"< c #785447",
"1 c #795547",
"2 c #795548",
"3 c #7B594D",
"4 c #7D5B4E",
"5 c #7C5B4F",
"6 c #7E5B4F",
"7 c #7F5C50",
"8 c #7F5D50",
"9 c #836256",
"0 c #987F76",
"q c #997F76",
"w c #998077",
"e c #9A8077",
"r c #9A8078",
"t c #9A8178",
"y c #9B8178",
"u c #9B8279",
"i c #9C8278",
"p c #9C8279",
"a c #9D8279",
"s c #9D837A",
"d c #9E847A",
"f c #9E847B",
"g c #A0877E",
"h c #A0887F",
"j c #A1887F",
"k c #A28980",
/* pixels */
"22222,o$es81222222222,o$es812222",
"22222,o$0s81222222222,o$es812222",
"22222,o@es82222222222,o$es822222",
",,,,,,o@es5,,,,,,,,,,,o$es5,,,,,",
"oooooo @es=ooooooooooo @es=.oooo",
"@@@@@@@-ss;o@@@@@@@@@@@-ss;o@@@@",
"0000000egje000000000000egge0000e",
"kjssssssssssssesjjssssssssssssee",
"js955555555555=-ss955555555555=@",
"js81222122112,o@0s81222221112,o ",
"js82222222222,o@es81222222222,o.",
"js5,,,,,,,,,,,o@0s5,,,,,,,,,,,o.",
"js=ooooooooooo @es=.oooooooooo. ",
"js;o@@@@@@@@@@o-ss;o@@@@@@@@@@@@",
"jgs000000000000eggs0000000000000",
"ssssssesjjssssssssssssesjjssssss",
"555555=-ss955555555555=-ss955555",
"21212,o@0s81222222222,o@0s812222",
"22222,o@0s81222222222,o@es812222",
",,,,,,o@0s5,,,,,,,,,,,o@0s5,,,,,",
"oooooo @es=ooooooooooo @es=.oooo",
"@@@@@@o-ss;o@@@@@@@@@@o-ss;o@@@@",
"0000000egge000000000000eggs00000",
"kjssssssssssssesjjssssssssssssee",
"js955555555555=-ss955555555555=@",
"js81222222222,o@es81222222222,o ",
"js82222222222,o$0s82222222222,o.",
"js5,,,,,,,,,,,o$0s5,,,,,,,,,,,o.",
"ks=ooooooooooo @es=ooooooooooo. ",
"js;o@@@@@@@@@@@-ss;o@@@@@@@@@@@@",
"jge000000000000egge0000000000000",
"jjjkkkkkkkkkkkkkjjkkkkkkkkkkkkkk"
};
